<svg xmlns="http://www.w3.org/2000/svg" data-name="Layer 1" viewBox="0 0 512 640" x="0px" y="0px"><path d="M202.2,122.12H321.93a4.57,4.57,0,0,0,0-9.14H202.2a4.57,4.57,0,1,0,0,9.14Z"/><path d="M326.5,161.16a4.57,4.57,0,0,0-4.57-4.56H202.2a4.57,4.57,0,1,0,0,9.13H321.93A4.57,4.57,0,0,0,326.5,161.16Z"/><path d="M323.67,296.41l30.38,20.07a4.57,4.57,0,0,0,7-4.55l-4.95-30.36c12.61-9.93,19.52-22.8,19.52-36.53,0-16.74-10.33-32.12-28-42.23,21-16.4,34-38.8,34-63.46,0-50.14-53.65-90.94-119.59-90.94s-119.6,40.8-119.6,90.94c0,19.43,7.82,37.8,22.67,53.36L140.2,231.52a4.57,4.57,0,0,0,3.84,7,4.41,4.41,0,0,0,1.34-.21L206,219.74a143.89,143.89,0,0,0,26.76,7.8,40.88,40.88,0,0,0-4,17.5c0,29.6,32.93,53.68,73.41,53.68A98.77,98.77,0,0,0,323.67,296.41ZM204.89,210.52,154.63,226l20.17-31.39a4.57,4.57,0,0,0-.66-5.75c-14.74-14.34-22.54-31.45-22.54-49.47,0-45.1,49.56-81.81,110.47-81.81s110.46,36.71,110.46,81.81c0,23.81-13.8,45.26-35.78,60.23a4.21,4.21,0,0,0-.58.39c-19.61,13.17-45.61,21.2-74.1,21.2A141.53,141.53,0,0,1,208,210.68,4.59,4.59,0,0,0,204.89,210.52ZM238,245a32.4,32.4,0,0,1,4.32-16,157,157,0,0,0,19.8,1.26c29.42,0,56.4-8.13,77.25-21.58,17.07,8.41,27.19,21.85,27.19,36.32,0,11.52-6.4,22.47-18,30.84a4.57,4.57,0,0,0-1.83,4.44l3.72,22.78-23.31-15.4a4.58,4.58,0,0,0-3.6-.62,89.81,89.81,0,0,1-21.24,2.51C266.79,289.59,238,269.6,238,245Z"/><path d="M204.78,427.12H163.47l-28.29-69a42.73,42.73,0,0,0-24.12-23.73A40.18,40.18,0,1,0,70,335.43a37.31,37.31,0,0,0-20.57,33.32v88.48a4.57,4.57,0,0,0,9.13,0V368.75a28.2,28.2,0,0,1,28.16-28.16h8.8a33.66,33.66,0,0,1,31.26,21l29.45,71.86a4.56,4.56,0,0,0,4.22,2.84h44.38a9.1,9.1,0,0,1,0,18.2H145.27a12.51,12.51,0,0,1-11.61-7.79l-21.9-53.4a4.57,4.57,0,0,0-8.45,3.47l21.89,53.39a21.62,21.62,0,0,0,20.07,13.46h59.51a18.24,18.24,0,0,0,0-36.47ZM58.57,300.41a31,31,0,1,1,31,31A31.08,31.08,0,0,1,58.57,300.41Z"/><path d="M442.05,335.43a40.17,40.17,0,1,0-41.11-1.07,42.73,42.73,0,0,0-24.12,23.73l-28.29,69H307.22a18.24,18.24,0,0,0,0,36.47h59.51a21.62,21.62,0,0,0,20.07-13.46l21.89-53.39a4.57,4.57,0,1,0-8.45-3.47l-21.9,53.4a12.5,12.5,0,0,1-11.61,7.79H307.22a9.1,9.1,0,0,1,0-18.2H351.6a4.56,4.56,0,0,0,4.22-2.84l29.45-71.86a33.66,33.66,0,0,1,31.26-21h8.8a28.2,28.2,0,0,1,28.16,28.16v88.48a4.57,4.57,0,0,0,9.13,0V368.75A37.31,37.31,0,0,0,442.05,335.43Zm-50.69-35a31,31,0,1,1,31,31A31.07,31.07,0,0,1,391.36,300.41Z"/><text x="0" y="527" fill="#000000" font-size="5px" font-weight="bold" font-family="'Helvetica Neue', Helvetica, Arial-Unicode, Arial, Sans-serif">Created by Teewara soontorn</text><text x="0" y="532" fill="#000000" font-size="5px" font-weight="bold" font-family="'Helvetica Neue', Helvetica, Arial-Unicode, Arial, Sans-serif">from the Noun Project</text></svg>